<?xml version="1.0" standalone="no"?><!DOCTYPE svg PUBLIC "-//W3C//DTD SVG 1.1//EN" "http://www.w3.org/Graphics/SVG/1.1/DTD/svg11.dtd"><svg class="icon" height="512" viewBox="0 0 1024 1024" version="1.1" xmlns="http://www.w3.org/2000/svg"><path d="M529.8176 105.5744c-5.8368-2.1504-11.776-3.1744-17.7152-3.1744-14.6432 0-28.9792 6.3488-38.912 17.8176L261.7344 307.2H153.6c-56.5248 0-102.4 45.9776-102.4 102.4v204.8c0 56.5248 45.8752 102.4 102.4 102.4h108.032L473.088 903.7824c9.9328 11.5712 24.2688 17.8176 38.912 17.8176 5.9392 0 11.8784-1.024 17.7152-3.1744 20.0704-7.4752 33.4848-26.624 33.4848-48.0256V153.6c0-21.4016-13.312-40.5504-33.3824-48.0256zM512 870.4L285.2864 665.6H153.6c-28.16 0-51.2-23.04-51.2-51.2V409.6c0-28.16 23.04-51.2 51.2-51.2h131.6864L512 153.6v716.8zM965.3248 621.1584l-109.4656-109.568 109.4656-109.4656c9.9328-10.0352 9.9328-26.3168 0-36.2496s-26.3168-9.9328-36.2496 0L819.6096 475.3408 710.144 365.8752c-9.9328-9.9328-26.3168-9.9328-36.2496 0-9.9328 10.0352-9.9328 26.3168 0 36.2496L783.36 511.5904l-109.4656 109.568c-9.9328 10.0352-9.9328 26.3168 0 36.1472v0.1024c9.9328 9.9328 26.2144 9.9328 36.1472 0l109.568-109.568 109.4656 109.568c10.0352 9.9328 26.3168 9.9328 36.2496 0v-0.1024c10.0352-9.9328 10.0352-26.2144 0-36.1472z" /></svg>